%TF.GenerationSoftware,KiCad,Pcbnew,7.0.7*%
%TF.CreationDate,2024-01-23T17:49:00+09:00*%
%TF.ProjectId,ALTAIR_SERVO_MODULE_V1,414c5441-4952-45f5-9345-52564f5f4d4f,rev?*%
%TF.SameCoordinates,Original*%
%TF.FileFunction,Paste,Top*%
%TF.FilePolarity,Positive*%
%FSLAX46Y46*%
G04 Gerber Fmt 4.6, Leading zero omitted, Abs format (unit mm)*
G04 Created by KiCad (PCBNEW 7.0.7) date 2024-01-23 17:49:00*
%MOMM*%
%LPD*%
G01*
G04 APERTURE LIST*
G04 Aperture macros list*
%AMRoundRect*
0 Rectangle with rounded corners*
0 $1 Rounding radius*
0 $2 $3 $4 $5 $6 $7 $8 $9 X,Y pos of 4 corners*
0 Add a 4 corners polygon primitive as box body*
4,1,4,$2,$3,$4,$5,$6,$7,$8,$9,$2,$3,0*
0 Add four circle primitives for the rounded corners*
1,1,$1+$1,$2,$3*
1,1,$1+$1,$4,$5*
1,1,$1+$1,$6,$7*
1,1,$1+$1,$8,$9*
0 Add four rect primitives between the rounded corners*
20,1,$1+$1,$2,$3,$4,$5,0*
20,1,$1+$1,$4,$5,$6,$7,0*
20,1,$1+$1,$6,$7,$8,$9,0*
20,1,$1+$1,$8,$9,$2,$3,0*%
G04 Aperture macros list end*
%ADD10RoundRect,0.225000X-0.225000X-0.250000X0.225000X-0.250000X0.225000X0.250000X-0.225000X0.250000X0*%
%ADD11R,1.085000X0.550000*%
%ADD12R,0.800000X1.200000*%
%ADD13RoundRect,0.225000X-0.250000X0.225000X-0.250000X-0.225000X0.250000X-0.225000X0.250000X0.225000X0*%
%ADD14RoundRect,0.218750X-0.218750X-0.256250X0.218750X-0.256250X0.218750X0.256250X-0.218750X0.256250X0*%
%ADD15R,1.800000X1.200000*%
%ADD16RoundRect,0.200000X-0.200000X-0.275000X0.200000X-0.275000X0.200000X0.275000X-0.200000X0.275000X0*%
%ADD17RoundRect,0.225000X0.250000X-0.225000X0.250000X0.225000X-0.250000X0.225000X-0.250000X-0.225000X0*%
%ADD18RoundRect,0.250000X1.750000X1.000000X-1.750000X1.000000X-1.750000X-1.000000X1.750000X-1.000000X0*%
%ADD19RoundRect,0.200000X0.275000X-0.200000X0.275000X0.200000X-0.275000X0.200000X-0.275000X-0.200000X0*%
%ADD20R,1.475000X0.300000*%
%ADD21R,0.300000X1.475000*%
%ADD22RoundRect,0.150000X-0.512500X-0.150000X0.512500X-0.150000X0.512500X0.150000X-0.512500X0.150000X0*%
%ADD23R,1.050000X0.650000*%
%ADD24R,1.970000X0.590000*%
G04 APERTURE END LIST*
D10*
%TO.C,C17*%
X156705000Y-118695000D03*
X158255000Y-118695000D03*
%TD*%
D11*
%TO.C,D1*%
X142304700Y-70876200D03*
X140024700Y-70876200D03*
%TD*%
D12*
%TO.C,IC8*%
X171450000Y-108585000D03*
X168910000Y-108585000D03*
X168910000Y-114885000D03*
X170180000Y-114885000D03*
X171450000Y-114885000D03*
%TD*%
D13*
%TO.C,C7*%
X176276000Y-84582000D03*
X176276000Y-86132000D03*
%TD*%
D14*
%TO.C,LED3*%
X107915500Y-118618000D03*
X109490500Y-118618000D03*
%TD*%
D15*
%TO.C,Q1*%
X151563000Y-74251000D03*
X147563000Y-74251000D03*
X147563000Y-76651000D03*
X151563000Y-76651000D03*
%TD*%
D10*
%TO.C,C12*%
X124955000Y-118695000D03*
X126505000Y-118695000D03*
%TD*%
%TO.C,C19*%
X169405000Y-118695000D03*
X170955000Y-118695000D03*
%TD*%
D16*
%TO.C,R1*%
X111888000Y-108518000D03*
X113538000Y-108518000D03*
%TD*%
D17*
%TO.C,C1*%
X154940000Y-76215000D03*
X154940000Y-74665000D03*
%TD*%
D14*
%TO.C,LED1*%
X107915500Y-108458000D03*
X109490500Y-108458000D03*
%TD*%
D18*
%TO.C,C9*%
X201295000Y-102235000D03*
X193295000Y-102235000D03*
%TD*%
D19*
%TO.C,R8*%
X143510000Y-106934000D03*
X143510000Y-105284000D03*
%TD*%
D10*
%TO.C,C16*%
X150355000Y-118695000D03*
X151905000Y-118695000D03*
%TD*%
D19*
%TO.C,R10*%
X156210000Y-106934000D03*
X156210000Y-105284000D03*
%TD*%
D16*
%TO.C,R4*%
X168402000Y-67056000D03*
X170052000Y-67056000D03*
%TD*%
D10*
%TO.C,C15*%
X144005000Y-118695000D03*
X145555000Y-118695000D03*
%TD*%
D12*
%TO.C,IC3*%
X139700000Y-108585000D03*
X137160000Y-108585000D03*
X137160000Y-114885000D03*
X138430000Y-114885000D03*
X139700000Y-114885000D03*
%TD*%
D19*
%TO.C,R12*%
X168910000Y-106934000D03*
X168910000Y-105284000D03*
%TD*%
D12*
%TO.C,IC5*%
X152400000Y-108585000D03*
X149860000Y-108585000D03*
X149860000Y-114885000D03*
X151130000Y-114885000D03*
X152400000Y-114885000D03*
%TD*%
D13*
%TO.C,C4*%
X162400000Y-58928000D03*
X162400000Y-60478000D03*
%TD*%
D20*
%TO.C,U3*%
X165966000Y-72450000D03*
X165966000Y-72950000D03*
X165966000Y-73450000D03*
X165966000Y-73950000D03*
X165966000Y-74450000D03*
X165966000Y-74950000D03*
X165966000Y-75450000D03*
X165966000Y-75950000D03*
X165966000Y-76450000D03*
X165966000Y-76950000D03*
X165966000Y-77450000D03*
X165966000Y-77950000D03*
X165966000Y-78450000D03*
X165966000Y-78950000D03*
X165966000Y-79450000D03*
X165966000Y-79950000D03*
D21*
X167954000Y-81938000D03*
X168454000Y-81938000D03*
X168954000Y-81938000D03*
X169454000Y-81938000D03*
X169954000Y-81938000D03*
X170454000Y-81938000D03*
X170954000Y-81938000D03*
X171454000Y-81938000D03*
X171954000Y-81938000D03*
X172454000Y-81938000D03*
X172954000Y-81938000D03*
X173454000Y-81938000D03*
X173954000Y-81938000D03*
X174454000Y-81938000D03*
X174954000Y-81938000D03*
X175454000Y-81938000D03*
D20*
X177442000Y-79950000D03*
X177442000Y-79450000D03*
X177442000Y-78950000D03*
X177442000Y-78450000D03*
X177442000Y-77950000D03*
X177442000Y-77450000D03*
X177442000Y-76950000D03*
X177442000Y-76450000D03*
X177442000Y-75950000D03*
X177442000Y-75450000D03*
X177442000Y-74950000D03*
X177442000Y-74450000D03*
X177442000Y-73950000D03*
X177442000Y-73450000D03*
X177442000Y-72950000D03*
X177442000Y-72450000D03*
D21*
X175454000Y-70462000D03*
X174954000Y-70462000D03*
X174454000Y-70462000D03*
X173954000Y-70462000D03*
X173454000Y-70462000D03*
X172954000Y-70462000D03*
X172454000Y-70462000D03*
X171954000Y-70462000D03*
X171454000Y-70462000D03*
X170954000Y-70462000D03*
X170454000Y-70462000D03*
X169954000Y-70462000D03*
X169454000Y-70462000D03*
X168954000Y-70462000D03*
X168454000Y-70462000D03*
X167954000Y-70462000D03*
%TD*%
D10*
%TO.C,C5*%
X146024000Y-70866000D03*
X147574000Y-70866000D03*
%TD*%
D19*
%TO.C,R6*%
X130810000Y-106934000D03*
X130810000Y-105284000D03*
%TD*%
D22*
%TO.C,U1*%
X135128000Y-70866000D03*
X135128000Y-71816000D03*
X135128000Y-72766000D03*
X137403000Y-72766000D03*
X137403000Y-70866000D03*
%TD*%
D12*
%TO.C,IC7*%
X165100000Y-108585000D03*
X162560000Y-108585000D03*
X162560000Y-114885000D03*
X163830000Y-114885000D03*
X165100000Y-114885000D03*
%TD*%
D14*
%TO.C,LED2*%
X107915500Y-113538000D03*
X109490500Y-113538000D03*
%TD*%
D12*
%TO.C,IC1*%
X127000000Y-108585000D03*
X124460000Y-108585000D03*
X124460000Y-114885000D03*
X125730000Y-114885000D03*
X127000000Y-114885000D03*
%TD*%
%TO.C,IC4*%
X146050000Y-108585000D03*
X143510000Y-108585000D03*
X143510000Y-114885000D03*
X144780000Y-114885000D03*
X146050000Y-114885000D03*
%TD*%
D16*
%TO.C,R3*%
X111888000Y-118618000D03*
X113538000Y-118618000D03*
%TD*%
D10*
%TO.C,C18*%
X163055000Y-118695000D03*
X164605000Y-118695000D03*
%TD*%
D23*
%TO.C,S1*%
X147488000Y-87006000D03*
X151638000Y-87006000D03*
X147488000Y-89156000D03*
X151638000Y-89156000D03*
%TD*%
D19*
%TO.C,R5*%
X124460000Y-106934000D03*
X124460000Y-105284000D03*
%TD*%
%TO.C,R11*%
X162560000Y-106934000D03*
X162560000Y-105284000D03*
%TD*%
D24*
%TO.C,S2*%
X152038000Y-83636000D03*
X152038000Y-82366000D03*
X152038000Y-81096000D03*
X152038000Y-79826000D03*
X147088000Y-79826000D03*
X147088000Y-81096000D03*
X147088000Y-82366000D03*
X147088000Y-83636000D03*
%TD*%
D13*
%TO.C,C2*%
X144272000Y-74676000D03*
X144272000Y-76226000D03*
%TD*%
D19*
%TO.C,R7*%
X137160000Y-106934000D03*
X137160000Y-105284000D03*
%TD*%
D12*
%TO.C,IC6*%
X158750000Y-108585000D03*
X156210000Y-108585000D03*
X156210000Y-114885000D03*
X157480000Y-114885000D03*
X158750000Y-114885000D03*
%TD*%
D10*
%TO.C,C10*%
X140436000Y-66675000D03*
X141986000Y-66675000D03*
%TD*%
%TO.C,C11*%
X137408500Y-74610000D03*
X138958500Y-74610000D03*
%TD*%
D19*
%TO.C,R9*%
X149860000Y-106934000D03*
X149860000Y-105284000D03*
%TD*%
D16*
%TO.C,R2*%
X111888000Y-113538000D03*
X113538000Y-113538000D03*
%TD*%
D17*
%TO.C,C8*%
X154432000Y-88856000D03*
X154432000Y-87306000D03*
%TD*%
D13*
%TO.C,C3*%
X174498000Y-84582000D03*
X174498000Y-86132000D03*
%TD*%
D10*
%TO.C,C13*%
X131305000Y-118695000D03*
X132855000Y-118695000D03*
%TD*%
%TO.C,C14*%
X137655000Y-118695000D03*
X139205000Y-118695000D03*
%TD*%
D12*
%TO.C,IC2*%
X133350000Y-108610000D03*
X130810000Y-108610000D03*
X130810000Y-114910000D03*
X132080000Y-114910000D03*
X133350000Y-114910000D03*
%TD*%
D17*
%TO.C,C6*%
X162560000Y-80264000D03*
X162560000Y-78714000D03*
%TD*%
M02*
