M48
; DRILL file {KiCad 7.0.7} date Tue Jan 23 17:49:27 2024
; FORMAT={-:-/ absolute / metric / decimal}
; #@! TF.CreationDate,2024-01-23T17:49:27+09:00
; #@! TF.GenerationSoftware,Kicad,Pcbnew,7.0.7
; #@! TF.FileFunction,MixedPlating,1,2
FMAT,2
METRIC
; #@! TA.AperFunction,Plated,PTH,ViaDrill
T1C0.300
; #@! TA.AperFunction,Plated,PTH,ComponentDrill
T2C0.600
; #@! TA.AperFunction,Plated,PTH,ComponentDrill
T3C0.950
; #@! TA.AperFunction,Plated,PTH,ComponentDrill
T4C2.300
; #@! TA.AperFunction,Plated,PTH,ComponentDrill
T5C2.700
; #@! TA.AperFunction,NonPlated,NPTH,ComponentDrill
T6C2.000
; #@! TA.AperFunction,NonPlated,NPTH,ComponentDrill
T7C3.200
%
G90
G05
T1
X106.68Y-55.88
X106.68Y-124.46
X106.68Y-129.54
X109.22Y-58.42
X109.22Y-96.52
X109.22Y-101.6
X109.22Y-106.68
X109.22Y-121.92
X109.22Y-127.0
X109.22Y-132.08
X111.76Y-55.88
X111.76Y-93.98
X111.76Y-99.06
X111.76Y-104.14
X111.76Y-124.46
X111.76Y-129.54
X111.76Y-134.62
X114.3Y-48.26
X114.3Y-53.34
X114.3Y-58.42
X114.3Y-96.52
X114.3Y-106.68
X114.3Y-111.76
X114.3Y-121.92
X114.3Y-127.0
X114.3Y-132.08
X116.84Y-50.8
X116.84Y-55.88
X116.84Y-93.98
X116.84Y-104.14
X116.84Y-109.22
X116.84Y-124.46
X116.84Y-129.54
X119.38Y-48.26
X119.38Y-53.34
X119.38Y-58.42
X119.38Y-101.6
X119.38Y-106.68
X119.38Y-111.76
X119.38Y-127.0
X119.38Y-132.08
X121.92Y-50.8
X121.92Y-55.88
X121.92Y-99.06
X121.92Y-104.14
X121.92Y-109.22
X121.92Y-124.46
X121.92Y-129.54
X124.46Y-48.26
X124.46Y-53.34
X124.46Y-96.52
X124.46Y-101.6
X124.46Y-121.92
X124.46Y-127.0
X127.0Y-50.8
X127.0Y-55.88
X127.0Y-93.98
X127.0Y-99.06
X127.0Y-104.14
X127.0Y-124.46
X127.0Y-129.54
X129.54Y-48.26
X129.54Y-53.34
X129.54Y-56.388
X129.54Y-96.52
X129.54Y-101.6
X129.54Y-106.68
X132.08Y-50.8
X132.08Y-93.98
X132.08Y-99.06
X132.08Y-104.14
X132.08Y-124.46
X132.08Y-129.54
X134.62Y-48.26
X134.62Y-53.34
X134.62Y-81.28
X134.62Y-86.36
X134.62Y-91.44
X134.62Y-101.6
X134.62Y-106.68
X134.62Y-121.92
X134.62Y-127.0
X134.62Y-132.08
X137.16Y-50.8
X137.16Y-83.82
X137.16Y-88.9
X137.16Y-124.46
X137.16Y-129.54
X139.7Y-48.26
X139.7Y-53.34
X139.7Y-81.28
X139.7Y-86.36
X139.7Y-101.6
X139.7Y-106.68
X139.7Y-121.92
X139.7Y-127.0
X142.24Y-50.8
X142.24Y-55.88
X142.24Y-83.82
X142.24Y-88.9
X142.24Y-99.06
X142.24Y-104.14
X142.24Y-124.46
X142.24Y-129.54
X144.78Y-48.26
X144.78Y-53.34
X144.78Y-60.198
X144.78Y-81.28
X144.78Y-86.36
X144.78Y-101.6
X144.78Y-106.68
X144.78Y-121.92
X144.78Y-127.0
X144.78Y-132.08
X147.32Y-50.8
X147.32Y-55.88
X147.32Y-99.06
X147.32Y-104.14
X149.352Y-70.485
X149.352Y-89.156
X149.86Y-121.92
X149.86Y-127.0
X152.4Y-99.06
X152.4Y-104.14
X152.4Y-124.46
X152.4Y-129.54
X152.654Y-60.198
X152.654Y-64.262
X153.924Y-58.928
X154.94Y-101.6
X154.94Y-106.68
X154.94Y-121.92
X154.94Y-127.0
X154.94Y-132.08
X157.48Y-63.5
X157.48Y-66.04
X157.48Y-90.424
X157.48Y-99.06
X157.48Y-104.14
X157.48Y-124.46
X157.48Y-129.54
X158.75Y-66.04
X158.75Y-91.44
X160.02Y-60.96
X160.02Y-92.71
X160.02Y-101.6
X160.02Y-106.68
X160.02Y-127.0
X161.29Y-93.98
X162.56Y-63.5
X162.56Y-129.54
X162.814Y-95.504
X163.068Y-74.93
X163.195Y-70.485
X163.83Y-96.774
X165.1Y-60.96
X165.1Y-98.044
X165.1Y-101.6
X165.1Y-106.68
X165.1Y-121.92
X165.1Y-127.0
X167.64Y-48.26
X167.64Y-58.42
X167.64Y-63.5
X167.64Y-73.66
X167.64Y-83.82
X167.64Y-88.9
X167.64Y-93.98
X167.64Y-99.06
X167.64Y-104.14
X167.64Y-124.46
X167.64Y-129.54
X168.656Y-68.834
X169.278Y-68.147
X170.18Y-50.8
X170.18Y-60.96
X170.18Y-86.36
X170.18Y-91.44
X170.18Y-96.52
X170.18Y-101.6
X170.18Y-121.92
X170.18Y-127.0
X170.18Y-132.08
X170.434Y-74.93
X171.196Y-77.873
X171.958Y-77.373
X172.72Y-48.26
X172.72Y-53.34
X172.72Y-76.873
X172.72Y-83.82
X172.72Y-88.9
X172.72Y-93.98
X172.72Y-99.06
X172.72Y-104.14
X172.72Y-124.46
X172.72Y-129.54
X173.482Y-65.024
X175.26Y-50.8
X175.26Y-55.88
X175.26Y-91.44
X175.26Y-96.52
X175.26Y-101.6
X175.26Y-121.92
X177.8Y-48.26
X177.8Y-53.34
X177.8Y-88.9
X177.8Y-93.98
X177.8Y-99.06
X177.8Y-119.38
X177.8Y-124.46
X177.8Y-129.54
X179.578Y-73.406
X180.34Y-50.8
X180.34Y-55.88
X180.34Y-116.84
X180.34Y-121.92
X180.34Y-132.08
X182.88Y-48.26
X182.88Y-53.34
X182.88Y-58.42
X182.88Y-63.5
X182.88Y-68.58
X182.88Y-73.66
X182.88Y-78.74
X182.88Y-83.82
X182.88Y-88.9
X182.88Y-93.98
X182.88Y-99.06
X182.88Y-104.14
X182.88Y-109.22
X182.88Y-119.38
X182.88Y-124.46
X182.88Y-129.54
X185.42Y-50.8
X185.42Y-55.88
X185.42Y-96.52
X185.42Y-101.6
X185.42Y-106.68
X185.42Y-116.84
X185.42Y-121.92
X185.42Y-127.0
X187.96Y-48.26
X187.96Y-53.34
X187.96Y-93.98
X187.96Y-99.06
X187.96Y-104.14
X187.96Y-109.22
X187.96Y-119.38
X187.96Y-124.46
X187.96Y-129.54
X190.5Y-50.8
X190.5Y-55.88
X190.5Y-96.52
X190.5Y-101.6
X190.5Y-106.68
X190.5Y-116.84
X190.5Y-127.0
X193.04Y-48.26
X193.04Y-53.34
X193.04Y-93.98
X193.04Y-109.22
T3
X118.0Y-134.0
X119.55Y-81.175
X119.55Y-83.675
X119.55Y-85.675
X119.55Y-88.175
X119.787Y-66.095
X119.787Y-68.595
X120.5Y-134.0
X121.787Y-66.095
X121.787Y-68.595
X123.0Y-134.0
X129.54Y-63.305
X129.54Y-65.805
X129.54Y-68.305
X129.54Y-70.805
X129.54Y-81.145
X129.54Y-83.645
X129.54Y-86.145
X129.54Y-88.645
X130.0Y-134.0
X132.5Y-134.0
X135.0Y-134.0
X142.0Y-134.0
X144.5Y-134.0
X147.0Y-134.0
X152.4Y-55.88
X154.0Y-134.0
X154.9Y-55.88
X156.5Y-134.0
X157.4Y-55.88
X159.0Y-134.0
X159.9Y-55.88
X162.4Y-55.88
X166.0Y-134.0
X168.5Y-134.0
X171.0Y-134.0
X178.0Y-134.0
X180.5Y-134.0
X183.0Y-134.0
X193.5Y-115.5
X193.5Y-118.0
X193.5Y-120.5
X193.5Y-127.55
X193.5Y-130.05
X193.5Y-132.55
T4
X116.84Y-78.105
X116.84Y-91.245
X116.927Y-61.345
X116.927Y-73.345
T5
X187.16Y-62.44
X187.16Y-69.64
X187.16Y-81.28
X187.16Y-88.48
T7
X110.0Y-50.0
X110.0Y-140.0
X200.0Y-50.0
X200.0Y-140.0
T2
G00X193.71Y-59.29
M15
G01X192.61Y-59.29
M16
G05
G00X193.71Y-72.79
M15
G01X192.61Y-72.79
M16
G05
G00X193.71Y-78.13
M15
G01X192.61Y-78.13
M16
G05
G00X193.71Y-91.63
M15
G01X192.61Y-91.63
M16
G05
T6
G00X120.1Y-140.5
M15
G01X120.9Y-140.5
M16
G05
G00X132.1Y-140.5
M15
G01X132.9Y-140.5
M16
G05
G00X144.1Y-140.5
M15
G01X144.9Y-140.5
M16
G05
G00X156.1Y-140.5
M15
G01X156.9Y-140.5
M16
G05
G00X157.8Y-49.38
M15
G01X157.0Y-49.38
M16
G05
G00X168.1Y-140.5
M15
G01X168.9Y-140.5
M16
G05
G00X180.1Y-140.5
M15
G01X180.9Y-140.5
M16
G05
G00X200.0Y-118.4
M15
G01X200.0Y-117.6
M16
G05
G00X200.0Y-130.45
M15
G01X200.0Y-129.65
M16
G05
T0
M30
